<svg width="120" height="120" viewBox="0 0 120 120" fill="none" xmlns="http://www.w3.org/2000/svg">
<path d="M91.333 80.5726C102.782 80.5726 107.596 70.3381 107.596 60.1063C107.596 51.532 102.319 41.7719 93.8853 41.7725C84.7061 41.7732 75.1058 52.2804 75.1056 61.9508C75.1055 70.9336 82.7281 78.2138 91.6636 77.2291C100.363 76.2704 104.587 68.8522 104.587 60.1063C104.587 52.8811 100.994 44.4546 93.7428 44.4546C85.7152 44.4546 78.0767 52.8797 78.0767 61.3089C78.0767 68.2987 84.3661 75.1809 91.333 74.554C98.3626 73.9215 102.177 67.3288 102.177 60.1063C102.177 54.687 99.1623 47.4632 93.7428 47.4632C86.7477 47.4632 81.6913 54.0851 81.6913 61.3089C81.6913 66.4649 86.1796 71.8021 91.333 71.5441C96.8786 71.2664 99.7672 65.5228 99.7672 60.1063C99.7672 55.891 97.9574 50.4731 93.7428 50.4731C88.4088 50.4731 84.7036 55.3784 84.7036 60.7083C84.7036 64.3189 87.8365 68.6198 91.333 68.5341C95.3795 68.435 97.3574 64.151 97.3574 60.1063C97.3574 57.095 95.5451 53.4831 93.1378 53.4831C89.4628 53.4831 87.1134 56.493 87.1134 60.7083C87.1134 62.4035 88.7807 65.5228 91.333 65.5228C93.8853 65.5228 95.5501 62.5142 95.5501 60.1063C95.5501 58.9023 94.3427 56.493 92.5354 56.493C90.728 56.493 89.5231 57.697 89.5231 59.503M91.333 80.5726C79.8839 80.5726 72.2021 72.1428 72.2025 61.307C72.2029 50.4712 83.0379 39.0341 93.8843 39.0349M91.333 80.5726L21.4465 85.3881M93.8843 39.0349C104.731 39.0357 110 50.4741 110 60.7084C110 70.9427 105.186 82.3432 90.728 83.5825L21.4465 89M93.8843 39.0349L69.6421 39.0349C69.6421 39.0349 68.1701 38.9564 67.2323 39.0349C63.3515 39.36 60.1702 41.6704 58.1957 43.2489C56.2211 44.8274 52.1712 48.0648 51.5688 57.6966C50.9663 67.3284 59.9219 73.418 61.8103 73.3483M21.4465 89L10 78.7662V76.3582M21.4465 89V85.3881M10 76.3582L21.4465 85.3881M10 76.3582L61.8103 73.3483M61.8103 73.3483L87.7155 80.5726" stroke="black" stroke-width="0.5"/>
</svg>
