<svg width="120" height="120" viewBox="0 0 120 120" fill="none" xmlns="http://www.w3.org/2000/svg">
<path d="M16.4014 93.2144H85.7496V87.8799H16.4014V93.2144Z" fill="white"/>
<path d="M34.9589 70.8096H103.887L85.7496 87.8799H16.4014L34.9589 70.8096Z" fill="white"/>
<path d="M103.887 76.1441L103.902 70.8096L85.7646 87.8799L85.75 93.2144L103.887 76.1441Z" fill="white"/>
<path d="M16.4014 93.2144H85.7496V87.8799H16.4014V93.2144Z" fill="black" fill-opacity="0.12"/>
<path d="M34.9589 70.8096H103.887L85.7496 87.8799H16.4014L34.9589 70.8096Z" fill="black" fill-opacity="0.42"/>
<path d="M103.887 76.1441L103.902 70.8096L85.7646 87.8799L85.75 93.2144L103.887 76.1441Z" fill="black" fill-opacity="0.82"/>
<path d="M10 90.0135H89.2552V83.917H10V90.0135Z" fill="white"/>
<path d="M31.2086 64.4082H109.983L89.2552 83.9172H10L31.2086 64.4082Z" fill="white"/>
<path d="M109.984 70.5048L110.001 64.4082L89.2725 83.9172L89.2559 90.0137L109.984 70.5048Z" fill="white"/>
<path d="M10 90.0135H89.2552V83.917H10V90.0135Z" fill="black" fill-opacity="0.05"/>
<path d="M31.2086 64.4082H109.983L89.2552 83.9172H10L31.2086 64.4082Z" fill="black" fill-opacity="0.3"/>
<path d="M109.984 70.5048L110.001 64.4082L89.259 83.9207L89.2559 90.0137L109.984 70.5048Z" fill="black" fill-opacity="0.7"/>
<path d="M16.4014 28.1338L102.287 35.0686V79.8783L16.4014 72.9434V28.1338Z" fill="white"/>
<path d="M16.4014 28.1378L102.287 35.0727L104.954 32.9348L19.0686 26L16.4014 28.1378Z" fill="white"/>
<path d="M104.953 32.9351L102.286 35.0727V79.8823L104.953 77.7447V32.9351Z" fill="white"/>
<path d="M16.4014 28.1338L102.287 35.0686V79.8783L16.4014 72.9434V28.1338Z" fill="black" fill-opacity="0.05"/>
<path d="M16.4014 28.1378L102.287 35.0727L104.954 32.9348L19.0686 26L16.4014 28.1378Z" fill="black" fill-opacity="0.3"/>
<path d="M104.953 32.9351L102.286 35.0727V79.8823L104.953 77.7447V32.9351Z" fill="black" fill-opacity="0.7"/>
</svg>
