<svg width="120" height="120" viewBox="0 0 120 120" fill="none" xmlns="http://www.w3.org/2000/svg">
<path d="M17.4769 86.3299C17.6906 86.9711 18.1305 87.1908 18.7007 87.5537C19.3383 87.9594 19.7866 88.0719 20.5365 88.1656C21.0107 88.2249 21.2824 88.1656 21.7603 88.1656H22.9842C23.7011 88.1656 24.1283 88.3543 24.82 88.1656C25.3355 88.025 25.5167 87.6416 26.0438 87.5537C27.098 87.378 27.4228 88.7776 28.4915 88.7776C29.5602 88.7776 29.8705 87.5537 30.9392 87.5537C32.0079 87.5537 32.3265 88.9101 33.3869 88.7776C34.2419 88.6707 34.4021 87.8163 35.2227 87.5537C36.1331 87.2624 36.7299 87.7247 37.6704 87.5537C38.4139 87.4185 38.7581 86.8349 39.5062 86.9418C40.0352 87.0174 40.201 87.4781 40.73 87.5537C41.4781 87.6606 41.8194 87.0597 42.5658 86.9418C43.2739 86.83 43.7868 86.5729 44.4016 86.9418C44.6914 87.1157 45.0135 87.5537 45.0135 87.5537C45.0135 87.5537 45.5746 88.645 46.2374 88.7776C47.0822 88.9465 47.2115 87.5537 48.0731 87.5537C48.9347 87.5537 49.0975 88.4878 49.9089 88.7776C51.0341 89.1794 51.7936 88.9951 52.9685 88.7776C54.2339 88.5432 54.9447 86.8592 56.0282 87.5537C56.3127 87.7361 56.3651 87.9692 56.6401 88.1656C57.8229 89.0105 60.3116 87.5537 60.3116 87.5537C60.3116 87.5537 61.0011 86.9418 61.5355 86.9418C62.0698 86.9418 62.2438 87.4131 62.7593 87.5537C63.451 87.7423 63.9035 87.7423 64.5951 87.5537C65.1106 87.4131 65.29 87.0174 65.819 86.9418C66.5671 86.8349 66.9049 87.46 67.6547 87.5537C68.129 87.613 68.4043 87.4944 68.8786 87.5537C69.6284 87.6474 69.9663 88.2725 70.7144 88.1656C71.2433 88.0901 71.4471 87.7642 71.9382 87.5537C72.6328 87.256 73.0259 86.8349 73.774 86.9418C74.303 87.0174 74.5067 87.3432 74.9978 87.5537C75.6924 87.8514 76.0872 88.0478 76.8336 88.1656C77.5418 88.2775 77.9613 88.2775 78.6694 88.1656C79.4158 88.0478 80.5052 87.5537 80.5052 87.5537C80.5052 87.5537 81.5928 86.8349 82.3409 86.9418C82.8699 87.0174 83.0541 87.3966 83.5648 87.5537C84.4784 87.8348 86.0125 87.5537 86.0125 87.5537L88.4602 86.9418L89.684 86.3299C89.684 86.3299 90.3863 85.8339 90.9079 85.7179C91.3745 85.6143 91.7043 85.9317 92.1317 85.7179C92.434 85.5668 92.7437 85.106 92.7437 85.106C92.7437 85.106 93.0533 84.6452 93.3556 84.4941C93.7831 84.2803 94.126 84.6452 94.5794 84.4941C95.2207 84.2803 95.1621 83.484 95.8033 83.2702C96.2567 83.1191 97.0271 83.2702 97.0271 83.2702H97.6391C97.6391 83.2702 97.9304 82.7652 98.251 82.6583C98.7579 82.4893 98.9405 83.2702 99.4749 83.2702C100.009 83.2702 100.53 83.1652 100.699 82.6583C100.774 82.4316 100.652 82.2807 100.699 82.0464C100.831 81.3836 101.249 80.8744 101.923 80.8225C102.455 80.7816 102.625 81.3185 103.146 81.4345C103.613 81.5381 103.904 81.5381 104.37 81.4345C104.892 81.3185 105.116 81.0615 105.594 80.8225L106.818 80.2106C107.296 79.9716 107.873 80.1056 108.042 79.5987C108.117 79.372 108.042 78.9868 108.042 78.9868C108.042 78.9868 107.805 78.1779 108.042 77.7629C108.307 77.299 109.001 77.6149 109.266 77.151C109.503 76.736 109.162 76.3937 109.266 75.9271C109.382 75.4055 109.762 75.2249 109.878 74.7033C109.981 74.2367 110.091 73.9069 109.878 73.4794C109.726 73.1772 109.639 73.0526 109.496 72.7466C109.266 72.2557 109.294 72.49 109.218 72.2633C109.112 71.9427 109.06 71.8994 108.917 71.5934C108.654 71.0319 108.761 71.2281 108.654 71.0317C108.492 70.7349 108.249 70.6866 108.042 70.4198C107.714 69.998 107.808 69.5738 107.43 69.196C106.896 68.6616 105.594 68.584 105.594 68.584C105.594 68.584 104.905 69.196 104.37 69.196C103.836 69.196 103.146 68.584 103.146 68.584L101.923 67.3602C101.923 67.3602 100.964 67.2122 100.699 66.7483C100.462 66.3333 100.936 65.9394 100.699 65.5244C100.434 65.0605 99.4749 64.9125 99.4749 64.9125C99.4749 64.9125 98.5161 64.7645 98.251 64.3006C98.0139 63.8856 98.251 63.0767 98.251 63.0767C98.251 63.0767 98.3266 62.6915 98.251 62.4648C98.1441 62.1442 97.6391 61.8529 97.6391 61.8529L97.0271 61.2409C97.0271 61.2409 96.6227 60.8958 96.4152 60.629C96.0872 60.2072 95.8033 59.4052 95.8033 59.4052C95.8033 59.4052 96.017 58.6088 95.8033 58.1813C95.6522 57.879 95.2982 57.89 95.1914 57.5694C95.1158 57.3427 95.2669 57.1842 95.1914 56.9575C95.0845 56.6368 94.5794 56.3455 94.5794 56.3455C94.5794 56.3455 94.0744 56.0542 93.9675 55.7336C93.892 55.5069 94.0431 55.3484 93.9675 55.1217C93.8606 54.8011 93.3556 54.5098 93.3556 54.5098L92.7437 53.8978C92.7437 53.8978 92.4524 53.3928 92.1317 53.2859C91.905 53.2103 91.5198 53.2859 91.5198 53.2859C91.5198 53.2859 91.1346 53.3615 90.9079 53.2859C90.5873 53.179 90.296 52.674 90.296 52.674L89.684 52.062C89.4451 51.8231 89.179 51.7707 89.0721 51.4501C88.9966 51.2234 89.0721 50.8382 89.0721 50.8382C88.9652 50.5176 88.4602 50.2263 88.4602 50.2263C88.0384 49.8982 87.4053 50.1213 87.2363 49.6143C87.0674 49.1074 87.7324 48.9121 87.8483 48.3905C87.952 47.9239 87.8483 47.1666 87.8483 47.1666L87.2363 45.9428C87.2363 45.9428 87.2832 45.5652 87.2363 45.3309C87.1038 44.6681 86.5682 44.4918 86.0125 44.107C85.5732 43.8029 85.228 43.7993 84.7886 43.4951C84.2329 43.1104 84.1205 42.656 83.5648 42.2712C83.1255 41.9671 82.8189 41.8983 82.3409 41.6593C81.863 41.4203 81.5564 41.3516 81.1171 41.0474C80.5614 40.6627 80.5345 40.0373 79.8932 39.8235C79.4398 39.6724 79.0844 40.0607 78.6694 39.8235C78.2054 39.5584 78.0575 38.5997 78.0575 38.5997L77.4455 37.9878H76.8336H76.2217L75.6098 37.3758L74.9978 36.7639L73.774 36.152C73.774 36.152 72.8164 35.5494 72.5501 34.9281C72.2677 34.2692 73.2303 33.3191 72.5501 33.0924C72.0432 32.9234 71.3263 33.7043 71.3263 33.7043C71.3263 33.7043 70.6241 33.2083 70.1024 33.0924C70.1024 33.0924 69.3451 33.196 68.8786 33.0924C68.357 32.9764 68.1764 32.5964 67.6547 32.4804C67.6547 32.4804 66.8843 32.6316 66.4309 32.4804C65.7897 32.2667 65.5918 31.8123 65.207 31.2566C64.9029 30.8172 65.102 30.2017 64.5951 30.0327C63.9539 29.819 63.756 30.7009 63.3713 31.2566C63.0671 31.6959 62.8753 31.9588 62.7593 32.4804V33.7043C62.7593 33.7043 61.9202 34.3724 61.5355 34.9281C61.2313 35.3675 61.4305 35.983 60.9236 36.152C60.6968 36.2276 60.3116 36.152 60.3116 36.152C60.3116 36.152 60.0377 35.5401 59.6997 35.5401C59.3617 35.5401 59.0878 36.152 59.0878 36.152H58.4759H57.8639C57.8639 36.152 57.4787 36.0764 57.252 36.152C56.7451 36.321 57.0179 36.998 56.6401 37.3758C56.2622 37.7537 55.9506 37.9878 55.4162 37.9878C54.8819 37.9878 54.7267 37.3758 54.1924 37.3758C53.658 37.3758 53.4465 37.7488 52.9685 37.9878L51.7447 38.5997C51.2667 38.8387 50.8987 38.8338 50.5208 39.2116C50.143 39.5895 49.9089 40.4355 49.9089 40.4355C49.9089 40.4355 49.3263 41.8731 48.6851 41.6593C48.3644 41.5524 48.0731 41.0474 48.0731 41.0474C48.0731 41.0474 47.3709 40.5514 46.8493 40.4355C45.8874 40.2217 44.4016 41.0474 44.4016 41.0474H43.1777C43.1777 41.0474 42.4073 40.8963 41.9539 41.0474C41.3126 41.2611 41.3928 42.1387 40.73 42.2712C40.4957 42.3181 40.3448 42.1957 40.1181 42.2712C39.7975 42.3781 39.8268 42.7763 39.5062 42.8832C39.2795 42.9587 38.8942 42.8832 38.8942 42.8832C38.8942 42.8832 38.5206 42.8648 38.2823 42.8832C37.5289 42.9411 36.4465 43.4951 36.4465 43.4951C36.4465 43.4951 35.6445 43.779 35.2227 44.107C34.9559 44.3145 34.8183 44.4522 34.6108 44.7189C34.2827 45.1407 33.9988 45.9428 33.9988 45.9428L33.3869 47.1666C33.3869 47.1666 33.1088 47.9732 32.775 48.3905C32.1074 49.225 31.108 48.8845 30.3273 49.6143C29.6979 50.2027 29.1034 51.4501 29.1034 51.4501C29.1034 51.4501 28.2946 52.1404 27.8796 52.674C27.2235 53.5176 27.3119 54.2781 26.6557 55.1217C26.2408 55.6552 25.4319 56.3455 25.4319 56.3455C25.4319 56.3455 24.7437 57.4295 24.82 58.1813C24.9069 59.0385 26.0438 60.0171 26.0438 60.0171C26.0438 60.0171 26.1394 60.7726 26.0438 61.2409C25.7378 62.7402 23.2902 62.1894 22.9842 63.6886C22.8886 64.1569 22.9842 64.9125 22.9842 64.9125C22.9842 64.9125 22.4124 65.9585 21.7603 66.1363C21.0313 66.3352 20.6536 65.3256 19.9246 65.5244C18.749 65.845 20.2207 67.7715 19.3126 68.584C18.9144 68.9403 18.5281 68.8918 18.0888 69.196C17.1064 69.8761 16.253 71.6437 16.253 71.6437C16.253 71.6437 15.5994 72.5046 15.0292 72.8675C14.3916 73.2732 13.1934 73.4794 13.1934 73.4794C13.1934 73.4794 11.9683 73.6463 11.3576 74.0914C10.6613 74.5988 10.3964 75.1065 10.1338 75.9271C9.60353 77.5841 10.7823 78.5688 11.3576 80.2106C11.7832 81.4251 11.5737 82.4699 12.5815 83.2702C12.9999 83.6025 13.8053 83.8822 13.8053 83.8822C13.8053 83.8822 14.8154 83.4547 15.0292 83.8822C15.136 84.0959 14.9536 84.2674 15.0292 84.4941C15.1981 85.001 16.253 85.106 16.253 85.106C16.253 85.106 17.1389 84.7681 17.4769 85.106C17.8148 85.444 17.3257 85.8764 17.4769 86.3299Z" stroke="black"/>
<path d="M49.9092 86.3299C49.9092 86.3299 49.1283 85.6129 49.2973 85.106C49.4041 84.7854 49.8023 84.8147 49.9092 84.4941C49.9848 84.2674 49.9848 84.1089 49.9092 83.8822C49.8023 83.5615 49.4041 83.5908 49.2973 83.2702C49.2217 83.0435 49.2973 82.6583 49.2973 82.6583C49.2973 82.6583 49.2973 82.2853 49.2973 82.0464C49.2973 81.8074 49.4662 81.6034 49.2973 81.4345C49.1283 81.2655 48.912 81.51 48.6853 81.4345C48.3647 81.3276 48.1803 81.1431 48.0734 80.8225C47.9978 80.5958 48.2424 80.3796 48.0734 80.2106C47.9044 80.0416 47.6882 80.2862 47.4615 80.2106C47.1409 80.1037 47.1875 79.5987 46.8496 79.5987C46.5116 79.5987 46.4766 79.9716 46.2376 80.2106C45.9987 80.4496 45.8647 80.5836 45.6257 80.8225C45.3867 81.0615 45.1649 81.1322 45.0138 81.4345C44.8 81.8619 45.0138 82.6583 45.0138 82.6583C45.0138 82.6583 45.4413 83.6684 45.0138 83.8822C44.5358 84.1211 44.9088 82.8273 44.4019 82.6583C44.1752 82.5827 44.0166 82.7339 43.7899 82.6583C43.4693 82.5514 43.2849 82.367 43.178 82.0464C43.1024 81.8197 43.178 81.6734 43.178 81.4345C43.178 81.1955 43.2536 81.0492 43.178 80.8225C43.0711 80.5019 42.673 80.5312 42.5661 80.2106C42.4905 79.9839 42.7351 79.7677 42.5661 79.5987C42.3971 79.4297 42.1931 79.5987 41.9542 79.5987C41.4762 79.5987 41.1969 79.7024 40.7303 79.5987C40.2087 79.4828 40.0354 79.0623 39.5065 78.9867C39.2699 78.953 39.1212 78.9112 38.8945 78.9867C38.5739 79.0936 38.3895 79.2781 38.2826 79.5987C38.207 79.8254 38.2826 80.2106 38.2826 80.2106" stroke="#535353" stroke-width="0.5"/>
<path d="M96.4154 75.9272C96.4154 75.9272 95.6134 76.2111 95.1916 76.5392C94.9248 76.7467 94.5797 77.1511 94.5797 77.1511C94.5797 77.1511 94.2345 77.5555 93.9677 77.763C93.5459 78.0911 93.2655 78.259 92.7439 78.3749C92.2773 78.4786 91.9475 78.1612 91.52 78.3749C91.2178 78.5261 91.2104 78.8357 90.9081 78.9869C90.4806 79.2006 89.6843 78.9869 89.6843 78.9869C89.6843 78.9869 88.5401 79.1755 87.8485 78.9869C87.333 78.8463 87.159 78.3749 86.6246 78.3749C86.0903 78.3749 85.9224 78.871 85.4008 78.9869C84.9342 79.0906 84.1769 78.9869 84.1769 78.9869H82.9531C82.9531 78.9869 81.8708 79.5408 81.1173 79.5988C80.879 79.6171 80.7321 79.5232 80.5054 79.5988C80.1848 79.7057 80.1324 79.9718 79.8935 80.2107C79.6545 80.4497 79.2815 80.8226 79.2815 80.8226C79.2815 80.8226 78.9364 81.2271 78.6696 81.4346C78.2478 81.7626 77.9237 81.8075 77.4458 82.0465C76.9678 82.2855 76.7509 82.5829 76.2219 82.6584C75.9853 82.6922 75.8465 82.6246 75.61 82.6584C75.081 82.734 74.8079 82.9423 74.3861 83.2703C74.1194 83.4778 74.0132 83.6433 73.7742 83.8823C73.2963 84.3602 73.1916 84.8924 72.5503 85.1061C72.0969 85.2573 71.754 85.3199 71.3265 85.1061C71.0242 84.955 70.8214 84.8148 70.7146 84.4942C70.5456 83.9873 71.8044 83.5093 71.3265 83.2703C71.1128 83.1635 70.7146 83.2703 70.7146 83.2703L69.4907 83.8823" stroke="#535353" stroke-width="0.5"/>
<path d="M94.5789 64.3003C94.5789 64.3003 94.2059 64.6732 93.967 64.9122C93.728 65.1512 93.693 65.5241 93.355 65.5241C93.0171 65.5241 93.0811 64.9122 92.7431 64.9122C92.4051 64.9122 92.1312 65.1862 92.1312 65.5241C92.1312 65.8621 92.6362 65.8155 92.7431 66.1361C92.8187 66.3628 92.8187 66.5213 92.7431 66.748C92.6362 67.0686 92.1312 67.022 92.1312 67.3599C92.1312 67.6979 92.4225 67.865 92.7431 67.9718C92.9698 68.0474 93.186 67.8029 93.355 67.9718C93.524 68.1408 93.4619 68.37 93.355 68.5838C93.1413 69.0113 92.5587 68.37 92.1312 68.5838C91.8289 68.7349 91.7582 68.9567 91.5193 69.1957C91.2803 69.4347 90.9073 69.8076 90.9073 69.8076L90.2954 70.4195C90.2954 70.4195 89.891 70.7647 89.6835 71.0315C89.3554 71.4533 89.3996 71.8335 89.0715 72.2553C88.8641 72.5221 88.7802 72.7604 88.4596 72.8672C88.2329 72.9428 88.0744 72.7917 87.8477 72.8672C87.3408 73.0362 87.3113 73.5621 87.2358 74.0911C87.202 74.3277 87.1602 74.4763 87.2358 74.703C87.3426 75.0236 87.5271 75.2081 87.8477 75.3149C88.0744 75.3905 88.4596 75.3149 88.4596 75.3149C88.4596 75.3149 88.8326 75.3149 89.0715 75.3149C89.5495 75.3149 90.0817 74.8875 90.2954 75.3149C90.4023 75.5287 90.2198 75.7002 90.2954 75.9269C90.4023 76.2475 90.5694 76.5388 90.9073 76.5388C91.2453 76.5388 91.5193 75.9269 91.5193 75.9269C91.5193 75.9269 91.827 75.1424 92.1312 74.703C92.8113 73.7206 93.6808 73.6554 94.5789 72.8672C95.3409 72.1985 96.094 71.9933 96.4147 71.0315C96.6414 70.3513 96.4147 69.1957 96.4147 69.1957" stroke="#535353" stroke-width="0.5"/>
<path d="M27.8799 68.5837C27.8799 68.5837 28.6822 69.668 29.1037 70.4194C29.3652 70.8855 29.3378 71.2654 29.7157 71.6433C30.0935 72.0211 30.5177 71.9271 30.9395 72.2552C31.2063 72.4627 31.2847 72.6597 31.5514 72.8671C31.9732 73.1952 32.2973 73.2401 32.7753 73.4791C33.2532 73.718 33.5212 73.852 33.9991 74.091C34.4771 74.33 34.8451 74.3251 35.223 74.7029C35.6008 75.0808 35.4571 75.5489 35.8349 75.9268C36.2128 76.3046 36.5298 76.4631 37.0588 76.5387C37.8069 76.6456 38.3602 76.4611 38.8945 75.9268C39.4289 75.3924 39.6133 74.8391 39.5065 74.091C39.4309 73.562 38.8945 73.4015 38.8945 72.8671C38.8945 72.3328 38.9995 71.8123 39.5065 71.6433C40.0134 71.4743 40.7303 72.2552 40.7303 72.2552L41.9542 72.8671L42.5661 73.4791C42.5661 73.4791 42.8574 73.9841 43.178 74.091C43.685 74.26 44.1368 73.943 44.4019 73.4791C44.639 73.0641 44.1881 72.6827 44.4019 72.2552C44.553 71.9529 45.0138 71.6433 45.0138 71.6433L45.6257 70.4194C45.6257 70.4194 46.1737 69.1956 46.8496 69.1956C47.5255 69.1956 48.0734 70.4194 48.0734 70.4194L48.6853 71.6433C48.6853 71.6433 48.9767 72.1483 49.2973 72.2552C49.8042 72.4242 50.5211 71.6433 50.5211 71.6433C50.5211 71.6433 50.9063 71.5677 51.133 71.6433C51.64 71.8123 51.281 72.602 51.745 72.8671C52.1599 73.1043 52.5413 72.6534 52.9688 72.8671C53.2711 73.0183 53.5807 73.4791 53.5807 73.4791C53.5807 73.4791 53.9789 73.3722 54.1927 73.4791C54.6706 73.718 53.5807 74.7029 53.5807 74.7029L52.9688 75.3148L52.3569 76.5387L51.745 77.1506C51.745 77.1506 51.1808 77.428 51.133 77.7625C51.0575 78.2915 51.879 78.1355 52.3569 78.3745C52.8348 78.6134 53.0591 78.8705 53.5807 78.9864C54.0473 79.0901 54.3771 79.2001 54.8046 78.9864C55.1069 78.8352 55.4165 78.3745 55.4165 78.3745L56.0284 77.7625C56.0284 77.7625 56.2625 76.9165 56.6404 76.5387C57.0182 76.1608 57.8642 75.9268 57.8642 75.9268L58.4761 75.3148C58.4761 75.3148 59.0881 75.0409 59.0881 74.7029C59.0881 74.225 57.8642 74.7029 57.8642 74.7029L57.2523 74.091L56.6404 73.4791C56.6404 73.4791 56.0284 72.7896 56.0284 72.2552C56.0284 71.7209 56.3123 71.4532 56.6404 71.0314C56.8479 70.7646 57.2523 70.4194 57.2523 70.4194C57.2523 70.4194 57.5619 69.9586 57.8642 69.8075C58.2917 69.5938 58.6606 69.5938 59.0881 69.8075C59.3904 69.9586 59.3977 70.2683 59.7 70.4194C60.1275 70.6332 60.4704 70.5706 60.9238 70.4194C61.5651 70.2057 61.763 69.7513 62.1477 69.1956C62.4519 68.7562 62.2527 68.1407 62.7596 67.9717C63.2666 67.8028 63.4491 68.5837 63.9835 68.5837C64.5178 68.5837 64.8295 68.3496 65.2073 67.9717C65.5852 67.5939 65.2849 66.7479 65.8193 66.7479C66.3536 66.7479 66.127 67.5324 66.4312 67.9717C66.8159 68.5275 67.0138 68.9818 67.655 69.1956C68.1084 69.3467 68.4255 69.3467 68.8789 69.1956C69.5201 68.9818 69.718 68.5275 70.1027 67.9717C70.4069 67.5324 70.2507 67.013 70.7147 66.7479C71.4628 66.3204 71.6955 67.8649 72.5504 67.9717C73.6109 68.1043 73.9549 66.9797 74.9981 66.7479C75.9313 66.5405 76.5909 66.3204 77.4458 66.7479C78.0504 67.0502 78.0651 67.6695 78.6697 67.9717C79.5247 68.3992 80.2624 68.3992 81.1174 67.9717C81.7219 67.6695 81.8237 67.1826 82.3412 66.7479C83.001 66.1937 83.4601 66.002 84.177 65.524C84.8939 65.0461 85.4838 64.9803 86.0128 64.3002C86.3409 63.8784 86.5088 63.598 86.6247 63.0763C86.7284 62.6098 86.7284 62.319 86.6247 61.8525C86.5088 61.3308 85.8438 61.1356 86.0128 60.6286C86.1197 60.308 86.4172 60.2835 86.6247 60.0167C86.9528 59.5949 87.1207 59.3145 87.2366 58.7929C87.3403 58.3263 87.2366 58.0469 87.2366 57.569C87.2366 57.33 87.2366 57.196 87.2366 56.9571C87.2366 56.4791 86.8987 56.0712 87.2366 55.7332C87.7146 55.2553 87.8193 56.7433 88.4605 56.9571C88.9139 57.1082 89.2309 56.8059 89.6843 56.9571C90.3256 57.1708 90.7303 57.5288 90.9082 58.1809C91.107 58.91 90.7497 59.4121 90.2963 60.0167C90.0935 60.2871 89.6843 60.6286 89.6843 60.6286" stroke="#535353" stroke-width="0.5"/>
<path d="M67.6544 37.376C67.8933 37.6149 68.0273 37.7489 68.2663 37.9879C68.5053 38.2269 68.7713 38.2792 68.8782 38.5998C68.9538 38.8265 68.8782 39.2118 68.8782 39.2118C68.8782 39.2118 68.9538 39.597 68.8782 39.8237C68.7713 40.1443 68.2663 40.4356 68.2663 40.4356C68.2663 40.4356 67.6544 40.7096 67.6544 41.0475C67.6544 41.3855 68.1594 41.3388 68.2663 41.6595C68.48 42.3007 67.0943 42.2094 67.0424 42.8833C67.0015 43.4161 67.8233 43.6002 67.6544 44.1072C67.5475 44.4278 67.2814 44.4801 67.0424 44.7191C66.8035 44.9581 66.6973 45.1235 66.4305 45.331C66.0087 45.6591 65.7283 45.827 65.2067 45.9429C64.7401 46.0466 63.9828 45.9429 63.9828 45.9429C63.9828 45.9429 63.1864 45.7292 62.759 45.9429C62.4567 46.0941 62.147 46.5549 62.147 46.5549C62.147 46.5549 61.8731 47.1668 61.5351 47.1668C61.1971 47.1668 60.9232 46.5549 60.9232 46.5549C60.9232 46.5549 60.6319 46.0498 60.3113 45.9429C59.8043 45.774 59.0874 46.5549 59.0874 46.5549L58.4755 47.1668L57.8636 47.7787C57.8636 47.7787 57.5184 48.1831 57.2516 48.3906C56.8298 48.7187 56.5494 48.8866 56.0278 49.0026C55.5612 49.1062 55.2189 48.7654 54.8039 49.0026C54.34 49.2677 54.431 49.7485 54.192 50.2264C53.953 50.7044 53.5801 50.9159 53.5801 51.4503C53.5801 51.9846 54.192 52.6741 54.192 52.6741C54.192 52.6741 54.6528 52.9838 54.8039 53.286C55.0177 53.7135 54.5668 54.0949 54.8039 54.5099C55.069 54.9738 55.5061 55.0059 56.0278 55.1218C56.4943 55.2255 56.8367 54.8847 57.2516 55.1218C57.7156 55.3869 57.5355 55.9239 57.8636 56.3457C58.071 56.6124 58.1732 56.8064 58.4755 56.9576C58.903 57.1713 59.2718 57.1713 59.6993 56.9576C60.0016 56.8064 60.3113 56.3457 60.3113 56.3457" stroke="#535353" stroke-width="0.5"/>
<path d="M31.5511 52.062C31.5511 52.062 32.3727 54.4921 33.3869 55.7336C34.3549 56.9186 36.4465 58.1813 36.4465 58.1813L39.5471 59.9799C39.5471 59.9799 37.6705 60.017 35.7563 60.0563C34.303 60.0862 33.388 60.629 32.163 61.6295C31.1663 62.4435 30.5342 64.1422 30.5342 64.1422" stroke="#535353" stroke-width="0.5"/>
</svg>
