<svg width="1728" height="349" viewBox="0 0 1728 349" fill="none" xmlns="http://www.w3.org/2000/svg">
<path fill-rule="evenodd" clip-rule="evenodd" d="M775.5 78.5008C774 62.9306 785.08 58.4999 792.5 54.5C800 49.9999 819.5 59 824.026 62.8242L806.853 71.9999L824.028 62.8277L824.168 63.0938C824.255 63.2588 824.815 63.3578 824.977 63.668C825.3 64.2882 825.848 65.1697 826.447 66.3331C827.646 68.6594 829.363 72.0239 831.462 76.2244C835.657 84.619 841.395 96.3874 847.583 109.908C859.817 136.637 874.344 171.367 881.789 200.557C893.265 245.549 889.11 282.817 863.869 307.459C839.925 330.836 802.55 336.931 762.653 335.088C681.837 331.354 568.276 293.782 454.932 247.032C340.806 199.959 224.189 142.402 136.243 96.7027C92.2364 73.8353 55.3362 53.8984 29.4251 39.6717C16.4684 32.5577 6.25607 26.8695 -0.726647 22.9543C-4.2181 20.9967 -6.90239 19.4822 -8.71891 18.4542C-9.62718 17.9402 -10.3185 17.5478 -10.7854 17.2824C-11.0188 17.1498 -11.1961 17.0488 -11.3164 16.9804L-11.4902 16.8813C-11.4994 16.876 -11.5049 16.8727 -1.59036 -0.496687C8.32419 -17.8661 8.32591 -17.8653 8.3312 -17.8623L-29.5004 -9.841C-29.3906 -9.77849 -29.2239 -9.68359 -29.0012 -9.55699C-28.5557 -9.30379 -27.8861 -8.92375 -27.0001 -8.4223C-25.2279 -7.4194 -29.0897 -2.4275 -25.6461 -0.496688C-18.7586 3.36503 10.8539 16.8729 24.3539 22.9543C51.3539 35.1172 81.1632 50.2968 124.854 73C212.304 118.442 317.263 162.06 429.854 208.5C543.225 255.261 680.707 290.12 753.854 293.5C790.938 295.213 819.877 285.31 831.462 274C841.75 263.955 845.037 254.591 835.08 215.557C828.569 190.029 815.636 164.84 803.58 138.5C797.624 125.485 794.656 116.587 790.615 108.5C788.596 104.46 787.212 101.696 786.081 99.4998C785.515 98.4021 785.373 98.0603 785.08 97.4998C784.982 97.3117 784.645 96.6236 784.581 96.4998L781 89.4998L777 81.4998" fill="url(#paint0_linear_154_194)"/>
<path fill-rule="evenodd" clip-rule="evenodd" d="M1546 272.679C1401.8 307.455 1196.62 329.746 1063.07 272.679C1012.03 250.865 924.604 205.417 880.449 172.333C858.188 155.653 839.024 140.301 825.42 129.114C818.614 123.518 813.189 118.955 809.452 115.78C807.583 114.193 806.136 112.951 805.149 112.1C804.655 111.675 804.276 111.347 804.017 111.122C803.887 111.01 803.787 110.923 803.718 110.863L803.607 110.766L783 92.9978C757.5 59.0991 792 41.1005 814.198 54.4267C814.23 54.4456 814.269 54.4883 814.269 54.4883C814.322 54.535 814.406 54.608 814.52 54.7065C814.747 54.9037 815.094 55.2034 815.554 55.6C816.475 56.3933 817.851 57.5743 819.646 59.0992C823.236 62.1494 828.495 66.573 835.119 72.0198C848.375 82.9197 858.776 94.8831 880.449 111.122C924.164 143.877 1016.67 191.671 1063.07 211.5C1183.64 263.018 1345.2 223.538 1488.74 188.919C1559.81 171.778 1623.11 151.265 1668.65 135.027C1691.41 126.914 1709.7 119.881 1722.26 114.89C1728.54 112.395 1733.39 110.412 1736.65 109.06C1738.28 108.385 1739.51 107.867 1740.32 107.523C1740.73 107.35 1741.04 107.221 1741.23 107.137L1741.45 107.046L1741.5 107.023C1741.5 107.023 1730.09 116.658 1738 135.027C1745.91 153.397 1774.01 192.463 1735.95 155.871L1773.9 192.509L1773.63 192.626C1773.39 192.727 1773.05 192.874 1772.6 193.063C1771.7 193.443 1770.38 193.996 1768.67 194.708C1765.23 196.132 1760.2 198.191 1753.72 200.763C1740.77 205.908 1751.75 219.207 1728.5 227.498C1682.02 244.07 1618.8 255.122 1546 272.679Z" fill="url(#paint1_linear_154_194)"/>
<defs>
<linearGradient id="paint0_linear_154_194" x1="309.5" y1="104.5" x2="1740.5" y2="257.5" gradientUnits="userSpaceOnUse">
<stop stop-color="#1F5CA9"/>
<stop offset="1" stop-color="#79DBF9"/>
</linearGradient>
<linearGradient id="paint1_linear_154_194" x1="-302.5" y1="-37.5" x2="1771.31" y2="227.874" gradientUnits="userSpaceOnUse">
<stop stop-color="#1F5CA9"/>
<stop offset="1" stop-color="#79DBF9"/>
</linearGradient>
</defs>
</svg>
