<svg width="120" height="120" viewBox="0 0 120 120" fill="none" xmlns="http://www.w3.org/2000/svg">
<path d="M58.4095 89.9523C61.5821 75.8518 60.8386 77.6138 60.8386 62.4558C60.8386 47.2978 58.4795 41.0255 53.5273 28.1475" stroke="black" stroke-width="2" stroke-linecap="round"/>
<path d="M81.0092 85.7211C84.0372 72.5316 83.3276 74.1797 83.3276 60.001C83.3276 45.8223 81.0761 39.9552 76.3496 27.9092" stroke="black" stroke-width="2" stroke-linecap="round"/>
<path d="M25.9424 81.491C24.5323 81.8435 24.385 82.7923 24.1798 83.9586C23.9536 85.2449 24.6005 85.991 25.2374 87.1312C26.8954 90.0996 29.4667 90.5574 32.5714 91.9434C35.7141 93.3464 37.7256 93.5065 41.1004 94.1815C42.863 94.534 43.3163 94.7137 44.273 94.534M25.9424 81.491C27.3525 81.1385 30.4824 85.479 34.0502 86.6285C37.7238 87.8121 43.8947 87.7366 43.8947 87.7366M25.9424 81.491C25.9424 81.491 25.2253 80.9081 24.8849 80.4335C24.8849 80.4335 24.0171 78.379 24.0003 77.0731C23.9835 75.7728 24.7941 74.0745 24.7941 74.0745C25.1257 73.5937 25.5829 73.1847 26.1197 72.9546M44.273 94.534C45.1596 94.3674 45.761 93.7569 46.3881 92.7714C47.0893 91.6696 47.4362 91.0339 47.8204 89.7857C48.449 87.7431 49.1277 85.1543 48.1507 83.2536C47.7056 82.3878 47.2538 81.9361 46.3881 81.491M44.273 94.534C45.2217 94.7481 44.6233 94.8864 46.7384 94.8864C48.8535 94.8864 54.7631 94.3404 58.0188 91.0087C58.4601 90.5571 59.0763 89.7857 59.0763 89.7857C59.0763 89.7857 60.0977 90.03 60.8389 90.4207C64.5426 92.3734 67.3634 90.1121 71.5045 89.4945C74.5277 89.0437 76.1838 89.4583 78.9304 88.1169C80.227 87.4836 81.2845 86.0736 81.2845 86.0736C81.2845 86.0736 82.7042 86.4628 83.7185 86.728C85.9907 87.3221 87.9891 87.8221 89.7112 86.2253C91.1397 84.9007 91.1549 81.8434 91.1549 81.8434L90.8024 76.9084M46.3881 81.491C45.1591 81.7 44.4603 81.7777 43.2155 81.8435C39.6175 82.0339 37.4533 81.9695 34.0502 80.786C31.3728 79.8549 27.705 77.2609 27.705 77.2609M46.3881 81.491C47.3836 80.4821 47.82 79.6966 48.1507 78.3184C48.6049 76.4253 48.6618 74.9035 47.4456 73.3833M46.3881 81.491C46.3881 81.491 50.7116 81.8821 53.4361 81.491C56.2815 81.0827 57.6698 79.9504 60.4864 79.3759C64.8111 78.4936 67.3762 79.1236 71.7667 78.6708C76.4727 78.1855 79.028 77.1622 83.7521 76.9084C86.5015 76.7607 90.8024 76.9084 90.8024 76.9084M47.4456 73.3833C46.0356 71.6207 40.234 73.7581 35.8127 72.6782C32.5098 71.8715 27.705 69.5056 27.705 69.5056M47.4456 73.3833C47.4456 73.3833 49.5056 70.8768 49.5585 69.1531C49.6229 67.0527 46.7384 64.923 46.7384 64.923M47.4456 73.3833C47.4456 73.3833 51.5343 73.5865 54.1411 73.3833C56.7812 73.1774 58.2103 72.6462 60.8389 72.3256C65.0839 71.8079 67.5109 72.0404 71.7667 71.6206C76.746 71.1294 79.47 70.2614 84.4572 69.858C87.342 69.6247 91.8599 69.5055 91.8599 69.5055M26.1197 72.9546C28.587 71.8971 31.3104 75.7282 35.1077 76.5559C38.7419 77.348 44.6255 76.9084 44.6255 76.9084M26.1197 72.9546C26.1197 72.9546 25.1766 72.0134 24.7941 71.2681C24.2795 70.2653 24.0993 69.5722 24.1798 68.448C24.2767 67.096 24.5301 65.9803 25.5877 65.2754M46.7384 64.923C46.7384 64.923 49.911 63.8654 50.2635 61.0453C50.616 58.2253 48.501 56.8152 48.501 56.1102M46.7384 64.923C46.7384 64.923 40.6808 65.1532 36.8681 64.5705C33.2047 64.0106 27.705 62.1029 27.705 62.1029M46.7384 64.923C46.7384 64.923 51.2375 65.6735 54.1411 65.6279C56.634 65.5887 57.9994 65.0989 60.4864 64.9229C64.8806 64.6118 71.7667 64.923 71.7667 64.923C71.7667 64.923 79.8859 63.2651 85.1622 62.8078C87.9086 62.5698 92.2124 62.4553 92.2124 62.4553M48.501 56.1102C48.7458 55.4052 49.8877 53.3998 49.911 51.5275C49.9381 49.351 48.1484 46.2398 48.1484 46.2398M48.501 56.1102C43.9505 56.7573 42.1557 56.8152 37.5731 56.4627C32.9904 56.1102 31.9142 55.8411 27.705 53.9951M48.501 56.1102C48.501 56.1102 55.5888 56.4626 60.1338 56.4626C64.6788 56.4626 67.2253 56.2914 71.7667 56.1102C77.1384 55.8958 80.2014 56.2237 85.5147 55.405C88.7171 54.9116 93.6225 53.6425 93.6225 53.6425M48.1484 46.2398C48.1484 46.2398 50.2044 43.3301 49.911 41.3047C49.6536 39.5283 47.4434 37.4271 47.4434 37.4271M48.1484 46.2398C48.1484 46.2398 41.7381 47.7622 37.5731 47.6499C33.6598 47.5444 27.705 45.8873 27.705 45.8873M48.1484 46.2398C48.1484 46.2398 55.3739 46.933 59.7813 46.9448C64.6015 46.9577 67.0804 46.3886 71.7667 46.2398C77.2705 46.0652 85.8672 46.2398 85.8672 46.2398L93.6225 43.7722M47.4434 37.4271C47.4434 37.4271 48.9495 33.9825 48.501 31.7869C48.1929 30.2789 47.7372 29.4328 46.7384 28.2617C44.4191 25.5425 41.4807 25.4274 37.9256 25.7942M47.4434 37.4271C47.4434 37.4271 41.4668 38.8372 37.5731 38.8371C33.6802 38.837 27.705 37.4271 27.705 37.4271M47.4434 37.4271L58.0188 38.8371L71.7667 38.837L85.8672 39.542L93.6225 37.0744M37.9256 25.7942C35.1025 26.0854 33.5851 27.0338 31.2279 28.6143C29.3665 29.8622 26.9977 32.4919 26.9977 32.4919C26.9977 32.4919 26.6452 33.3343 26.6452 33.9018C26.6452 34.4694 26.7306 34.8111 26.9977 35.3119M37.9256 25.7942C37.9256 25.7942 42.4527 24.6836 45.3283 25.089C46.8826 25.3081 47.7156 25.6541 49.206 26.1466C50.3228 26.5156 52.0261 27.2041 52.0261 27.2041C52.0261 27.2041 52.6536 27.4887 53.0836 27.5566C53.4915 27.621 53.7292 27.5868 54.1411 27.5566C54.8412 27.5054 55.2111 27.3185 55.9037 27.2041C57.4039 26.9563 58.2615 26.9001 59.7813 26.8516C60.6069 26.8252 61.0704 26.8516 61.8964 26.8516C62.7224 26.8516 63.1883 26.7839 64.0115 26.8516C64.846 26.9202 66.1265 27.2041 66.1265 27.2041C66.1265 27.2041 67.2027 27.2553 67.8891 27.2041C68.7242 27.1418 69.1686 26.9064 70.0042 26.8516C70.5536 26.8156 71.4142 26.8516 71.4142 26.8516C71.4142 26.8516 72.2825 26.7531 72.8243 26.8516C73.2526 26.9295 73.8818 27.2041 73.8818 27.2041L74.9393 27.5566C74.9393 27.5566 75.5861 27.5991 75.9969 27.5566C76.5615 27.4982 76.8653 27.3739 77.4069 27.2041C78.1143 26.9824 78.4621 26.7208 79.1695 26.4991C79.7111 26.3293 80.017 26.2226 80.5795 26.1466C81.2616 26.0544 82.3421 26.1466 82.3421 26.1466C82.3421 26.1466 83.4163 26.1466 84.1046 26.1466C84.793 26.1466 85.1849 26.056 85.8672 26.1466C87.0332 26.3013 87.6571 26.6365 88.6873 27.2041C90.3095 28.0979 91.1946 28.8294 92.2124 30.3767C93.6813 32.6099 93.6225 37.0744 93.6225 37.0744M25.5877 65.2754C26.6452 64.5705 31.8888 67.88 36.163 68.448C39.7111 68.9195 45.3283 68.448 45.3283 68.448M25.5877 65.2754C25.5877 65.2754 24.1207 62.2683 24.5301 60.3402C24.8246 58.9538 24.8302 58.5006 26.0096 57.7145M26.0096 57.7145C27.469 56.7417 32.6052 59.6048 36.8393 60.1889C40.1151 60.6408 45.3283 60.3402 45.3283 60.3402M26.0096 57.7145C26.0096 57.7145 25.2352 56.4626 25.2352 53.6425C25.2352 50.8224 26.1197 49.7649 26.1197 49.7649M26.1197 49.7649C26.1197 49.7649 32.8334 51.3859 37.2206 51.5275C40.9458 51.6478 46.7384 50.8224 46.7384 50.8224M26.1197 49.7649C26.1197 49.7649 25.2352 48.0023 25.2352 45.5347C25.2352 43.0671 26.6452 42.0096 26.6452 42.0096M26.6452 42.0096C26.6452 42.0096 32.8205 43.4566 36.8393 43.4196C40.6078 43.385 46.3859 42.0096 46.3859 42.0096M26.6452 42.0096C26.6452 42.0096 25.3612 39.6852 25.5877 38.132C25.7654 36.9135 26.4471 36.4132 26.9977 35.3119M26.9977 35.3119C30.2366 33.8009 32.258 33.2349 35.8105 32.8443C39.0975 32.4828 41.0253 32.5632 44.2708 33.1968M93.6225 37.0744L94.68 40.247L93.6225 43.7722M93.6225 43.7722L94.68 49.0598L93.6225 53.6425M93.6225 53.6425C93.6225 53.6425 94.4637 56.9192 93.975 58.9302C93.6115 60.4258 92.2124 62.4553 92.2124 62.4553M92.2124 62.4553C92.2124 62.4553 93.0587 64.8003 92.9174 66.3329C92.7975 67.6334 91.8599 69.5055 91.8599 69.5055M91.8599 69.5055C91.8599 69.5055 92.6477 72.3468 92.2124 74.0882C91.9138 75.2828 90.8024 76.9084 90.8024 76.9084" stroke="black" stroke-width="0.5"/>
</svg>
