<svg width="120" height="120" viewBox="0 0 120 120" fill="none" xmlns="http://www.w3.org/2000/svg">
<path d="M102.605 68.5983L38.0489 60.955C38.0489 60.955 37.8801 60.9178 37.6153 60.8462M37.6153 60.8462C36.9629 60.6699 35.728 60.2851 35.0001 59.7355C33.468 58.5786 32.5611 55.4672 32.5611 55.4672C32.5611 55.4672 31.7974 52.5028 31.9514 50.5892C32.1325 48.3374 32.3846 46.8775 33.7806 45.1014C34.7228 43.9027 35.4301 43.2681 36.8294 42.6624C37.9437 42.1801 39.8781 42.0527 39.8781 42.0527H42.9269L104.512 42.0008M37.6153 60.8462L30.7316 62.1745L22.8048 63.394L10 65.833C10 65.833 13.3162 65.854 15.4316 66.1976C18.4871 66.694 19.8265 68.0378 22.8048 68.8818C25.5919 69.6716 27.2836 69.5213 30.1218 70.1013C33.0732 70.7043 34.6412 71.4522 37.6153 71.9305C40.3785 72.375 44.7559 72.5403 44.7559 72.5403C44.7559 72.5403 48.4803 72.8415 50.8534 73.15C53.7261 73.5235 55.313 73.8933 58.1705 74.3695C61.0279 74.8458 65.4875 75.589 65.4875 75.589C65.4875 75.589 69.197 76.3689 71.585 76.8105C74.4337 77.3373 78.9023 78.03 78.9023 78.03C78.9023 78.03 79.6287 77.6211 80.1218 77.4202C81.031 77.0498 81.6385 77.147 82.5608 76.8105C83.5612 76.4455 84.0301 76.031 84.9998 75.591C86.1676 75.0612 86.858 74.8477 88.0486 74.3715C89.2392 73.8952 89.8943 73.5959 91.0974 73.152C92.5103 72.6306 93.3065 72.3418 94.7559 71.9325C95.7007 71.6656 96.2726 71.6592 97.1949 71.3227C98.1953 70.9577 98.6814 70.5795 99.6339 70.1032C100.586 69.627 101.626 69.0387 102.605 68.6192C102.605 68.6192 104.194 68.1569 105.121 67.6623C110.04 65.0398 109.999 54.2477 109.999 54.2477C109.999 54.2477 110.16 43.0114 105.121 42.0527C104.912 42.0128 104.709 41.996 104.512 42.0008M102.98 68.5036C97.8044 68.8815 98.4141 57.2962 98.4141 57.2962C98.4141 57.2962 99.2994 42.1263 104.512 42.0008" stroke="black" stroke-width="0.5" stroke-linecap="round"/>
<path d="M102.891 55.5365C102.891 55.5365 102.929 51.4087 104.742 51.4087C106.556 51.4087 106.274 55.4306 106.274 55.4306C106.274 55.4306 106.108 59.1254 104.511 59.1254C102.913 59.1254 102.891 55.5365 102.891 55.5365Z" stroke="black" stroke-width="0.5" stroke-linecap="round"/>
</svg>
